<svg xmlns="http://www.w3.org/2000/svg" viewBox="0 0 72 82" width="32" height="32" fill="none">
  <!-- Shield fill -->
  <path d="M36 78 C10 68 4 50 4 36 V12 Q4 4 12 4 H60 Q68 4 68 12 V36 C68 50 62 68 36 78Z" fill="#37003c"/>
  <!-- Outer border -->
  <path d="M36 78 C10 68 4 50 4 36 V12 Q4 4 12 4 H60 Q68 4 68 12 V36 C68 50 62 68 36 78Z" fill="none" stroke="#00ff87" stroke-width="2.5"/>
  <!-- Top accent bar -->
  <rect x="20" y="4" width="32" height="5" fill="#00ff87"/>
  <!-- FWD row -->
  <circle cx="22" cy="20" r="3.2" fill="#00ff87"/>
  <circle cx="36" cy="18" r="3.2" fill="#00ff87"/>
  <circle cx="50" cy="20" r="3.2" fill="#00ff87"/>
  <!-- MID row -->
  <circle cx="22" cy="34" r="2.8" fill="#00ff87" opacity="0.82"/>
  <circle cx="36" cy="32" r="2.8" fill="#00ff87" opacity="0.82"/>
  <circle cx="50" cy="34" r="2.8" fill="#00ff87" opacity="0.82"/>
  <!-- DEF row -->
  <circle cx="16" cy="50" r="2.5" fill="#00ff87" opacity="0.62"/>
  <circle cx="28" cy="48" r="2.5" fill="#00ff87" opacity="0.62"/>
  <circle cx="44" cy="48" r="2.5" fill="#00ff87" opacity="0.62"/>
  <circle cx="56" cy="50" r="2.5" fill="#00ff87" opacity="0.62"/>
  <!-- GK -->
  <circle cx="36" cy="63" r="2.8" fill="#00ff87" opacity="0.42"/>
</svg>
